<svg width="27" height="27" viewBox="0 0 27 27" fill="none" xmlns="http://www.w3.org/2000/svg">
<path d="M10.9688 22.4375V15.9375H16.0312V22.4375H22.7812V12.6875C22.7813 12.5808 22.7596 12.4751 22.7172 12.3764C22.6749 12.2778 22.6128 12.1882 22.5345 12.1127L14.097 3.98765C14.0186 3.91211 13.9255 3.85218 13.8231 3.81129C13.7207 3.77041 13.6109 3.74936 13.5 3.74936C13.3891 3.74936 13.2793 3.77041 13.1769 3.81129C13.0745 3.85218 12.9814 3.91211 12.903 3.98765L4.46555 12.1127C4.38722 12.1882 4.32511 12.2778 4.28276 12.3764C4.24041 12.4751 4.21866 12.5808 4.21875 12.6875V22.4375H10.9688Z" stroke="#5D1D40" stroke-linecap="round" stroke-linejoin="round"/>
</svg>
