<svg width="21" height="20" viewBox="0 0 21 20" fill="none" xmlns="http://www.w3.org/2000/svg">
<path d="M10.5 6.875L7.875 17.5" stroke="#5D1D40" stroke-linecap="round" stroke-linejoin="round"/>
<path d="M5.47148 11.875C4.96869 11.0447 4.67313 10.1155 4.60765 9.15906C4.54218 8.20264 4.70855 7.24469 5.09389 6.35929C5.47924 5.47388 6.07324 4.68474 6.82996 4.05289C7.58668 3.42103 8.48585 2.96339 9.45794 2.71536C10.43 2.46732 11.449 2.43553 12.4361 2.62244C13.4231 2.80936 14.3518 3.20997 15.1503 3.7933C15.9488 4.37663 16.5958 5.12705 17.0412 5.98654C17.4865 6.84603 17.7184 7.79156 17.7188 8.75001C17.7188 12.2016 15.0938 14.375 12.4688 14.375C9.84375 14.375 9.05379 12.7289 9.05379 12.7289" stroke="#343330" stroke-linecap="round" stroke-linejoin="round"/>
</svg>
