<svg width="39" height="38" viewBox="0 0 39 38" fill="none" xmlns="http://www.w3.org/2000/svg">
<g id="Users">
<path id="Vector" d="M1.55847 29.6875C2.77583 27.8637 4.44142 26.3651 6.40402 25.3277C8.36661 24.2903 10.5641 23.7469 12.7969 23.7469C15.0297 23.7469 17.2271 24.2903 19.1897 25.3277C21.1523 26.3651 22.8179 27.8637 24.0353 29.6875" stroke="#5D1D40" stroke-linecap="round" stroke-linejoin="round"/>
<path id="Vector_2" d="M26.2031 23.75C28.4358 23.7487 30.6334 24.2912 32.5962 25.3282C34.5589 26.3651 36.2245 27.8637 37.4415 29.6875" stroke="#343330" stroke-linecap="round" stroke-linejoin="round"/>
<path id="Vector_3" d="M12.7969 23.75C17.172 23.75 20.7188 20.2942 20.7188 16.0312C20.7188 11.7683 17.172 8.3125 12.7969 8.3125C8.42174 8.3125 4.875 11.7683 4.875 16.0312C4.875 20.2942 8.42174 23.75 12.7969 23.75Z" stroke="#343330" stroke-linecap="round" stroke-linejoin="round"/>
<path id="Vector_4" d="M23.2614 8.86172C24.345 8.44059 25.5107 8.25788 26.6753 8.32663C27.8398 8.39538 28.9743 8.7139 29.9979 9.25943C31.0214 9.80496 31.9086 10.564 32.5962 11.4824C33.2837 12.4008 33.7546 13.4558 33.9751 14.572C34.1957 15.6883 34.1605 16.8382 33.8721 17.9396C33.5836 19.0411 33.049 20.0669 32.3065 20.9437C31.5641 21.8205 30.632 22.5267 29.5769 23.0118C28.5218 23.4969 27.3698 23.749 26.2031 23.75" stroke="#343330" stroke-linecap="round" stroke-linejoin="round"/>
</g>
</svg>
